<?xml version="1.0" encoding="UTF-8" standalone="no"?>
<!-- Created with Inkscape (http://www.inkscape.org/) -->

<svg
   width="210mm"
   height="297mm"
   viewBox="0 0 210 297"
   version="1.1"
   id="svg1"
   xml:space="preserve"
   inkscape:version="1.4.2 (ebf0e940d0, 2025-05-08)"
   sodipodi:docname="fiole_09.svg"
   xmlns:inkscape="http://www.inkscape.org/namespaces/inkscape"
   xmlns:sodipodi="http://sodipodi.sourceforge.net/DTD/sodipodi-0.dtd"
   xmlns="http://www.w3.org/2000/svg"
   xmlns:svg="http://www.w3.org/2000/svg"><g
     inkscape:label="Layer 1"
     inkscape:groupmode="layer"
     id="layer1"><path
       style="fill:#000000;stroke-width:0.651375"
       d="m 62.385327,81.444656 c 0,10.461813 0,10.461813 0,10.461813"
       id="path11" /><path
       style="fill:#ffffff;fill-opacity:0;stroke:#000000;stroke-width:0.651375;stroke-opacity:1"
       d="M 43.515413,268.74703 C 39.333234,115.89946 39.333234,114.76727 39.333234,114.76727 c 0,0 0.557621,-16.98307 21.468526,-26.040701 V 77.842644 c 39.019177,12.628214 59.27893,6.211785 79.74026,0 l 4.47698,9.132468 c 0,0 16.99155,5.431135 20.3373,26.376908 l 1.95168,155.96111 c 0,0 -65.52084,57.45936 -123.792567,-0.5661 z"
       id="path12"
       sodipodi:nodetypes="ccccccccc" /><path
       style="fill:#ffffff;fill-opacity:0;stroke:#000000;stroke-width:0.652401;stroke-linejoin:round;stroke-dasharray:none;stroke-opacity:0.197422"
       d="m 43.794226,268.74703 c 54.451045,-38.44229 115.309124,-1.87524 123.232424,0.94009"
       id="path13"
       sodipodi:nodetypes="cc" /><path
       style="fill:#ffffff;fill-opacity:0;stroke:#000000;stroke-width:0.652399;stroke-linejoin:round;stroke-dasharray:none;stroke-opacity:0.197422"
       d="M 60.850181,88.556801 C 102.74472,103.04902 145.24993,86.806758 145.24993,86.806758"
       id="path14"
       sodipodi:nodetypes="cc" /><path
       style="fill:#000000;fill-opacity:0;stroke:#000000;stroke-width:0.640198;stroke-linejoin:round;stroke-dasharray:none;stroke-opacity:1"
       d="m 42.925057,20.369386 c 0,0 19.447242,28.256742 62.361683,26.122148 42.91444,-2.134598 55.57584,-24.902386 55.57584,-24.902386 0,0 1.23495,-18.9063539 -53.10276,-18.9063539 -54.337706,0 -64.834763,17.6865919 -64.834763,17.6865919 z"
       id="path16"
       sodipodi:nodetypes="cscsc" /><path
       style="fill:#000000;fill-opacity:1;stroke:#000000;stroke-width:0.652399;stroke-linejoin:round;stroke-dasharray:none;stroke-opacity:1"
       d="m 43.080823,20.120353 0.07865,20.409998 c 0,0 15.050893,15.576307 59.779057,14.519169 44.46007,-1.0508 57.7792,-15.388729 57.7792,-15.388729 l 0.18624,-18.317333 c 0,0 -4.68025,18.521124 -59.01016,18.521124 -53.066421,0 -58.812989,-19.744229 -58.812989,-19.744229 z"
       id="path17"
       sodipodi:nodetypes="ccsccsc" /><path
       style="fill:#131313;fill-opacity:0;stroke:#000000;stroke-width:0.652399;stroke-linejoin:round;stroke-dasharray:none;stroke-opacity:1"
       d="M 46.034422,66.643665 V 43.330108 c 0,0 17.688807,13.547072 58.342028,11.656783 40.65323,-1.890293 52.7561,-12.916973 52.7561,-12.916973 l 0.62066,19.217931 c 0,0 6.13517,14.240231 -43.39969,22.8405 C 85.142816,89.199905 63.5008,78.259399 60.774592,77.79658 44.016777,67.715059 46.034422,66.643665 46.034422,66.643665 Z"
       id="path18"
       sodipodi:nodetypes="ccsccscc" /><path
       style="fill:#ff53ff;fill-opacity:0.311085;stroke:#000000;stroke-width:0.652399;stroke-linejoin:round;stroke-dasharray:none;stroke-opacity:0"
       d="m 40.264094,116.70851 c 63.184166,-20.854962 124.565446,2.23194 124.565446,2.23194 l 1.99718,149.93995 c 0,0 -23.93698,25.5091 -64.54603,25.49144 -39.207214,-0.0174 -58.71282,-25.70107 -58.71282,-25.70107 z"
       id="path19"
       sodipodi:nodetypes="cccscc" /><path
       style="fill:#1a1a1a;fill-opacity:0;stroke:#000000;stroke-width:0.652399;stroke-linejoin:round"
       d="m 40.224917,116.75004 c 3.639314,-1.06177 8.351951,-2.52516 11.876876,-3.37959 67.860507,-16.449031 112.921177,6.18371 112.921177,6.18371 0,0 -26.62561,10.06713 -59.6842,9.48599 -33.05858,-0.58114 -65.113853,-12.29011 -65.113853,-12.29011 z"
       id="path1"
       sodipodi:nodetypes="cscsc" /></g></svg>
