<?xml version="1.0" encoding="UTF-8" standalone="no"?>
<!-- Created with Inkscape (http://www.inkscape.org/) -->

<svg
   width="210mm"
   height="297mm"
   viewBox="0 0 210 297"
   version="1.1"
   id="svg1"
   xml:space="preserve"
   inkscape:version="1.4.2 (ebf0e940d0, 2025-05-08)"
   sodipodi:docname="fiole_025.svg"
   xmlns:inkscape="http://www.inkscape.org/namespaces/inkscape"
   xmlns:sodipodi="http://sodipodi.sourceforge.net/DTD/sodipodi-0.dtd"
   xmlns="http://www.w3.org/2000/svg"
   xmlns:svg="http://www.w3.org/2000/svg"><g
     inkscape:label="Layer 1"
     inkscape:groupmode="layer"
     id="layer1"><path
       style="fill:#000000;stroke-width:0.620652"
       d="m 69.25416,81.346772 c 0,10.292692 0,10.292692 0,10.292692"
       id="path11" /><path
       style="fill:#ffffff;fill-opacity:0;stroke:#000000;stroke-width:0.620652;stroke-opacity:1"
       d="M 51.840812,265.62129 C 47.981454,115.2446 47.981454,114.13071 47.981454,114.13071 c 0,0 0.514578,-16.708532 19.811374,-25.61974 V 77.802989 c 36.007292,12.424072 54.703202,6.111368 73.585122,0 l 4.13141,8.984836 c 0,0 15.67996,5.343338 18.76746,25.950515 l 1.80103,153.43991 c 0,0 -60.46329,56.53049 -114.237038,-0.55696 z"
       id="path12"
       sodipodi:nodetypes="ccccccccc" /><path
       style="fill:#ffffff;fill-opacity:0;stroke:#000000;stroke-width:0.62163;stroke-linejoin:round;stroke-dasharray:none;stroke-opacity:0.197422"
       d="M 52.098103,265.62129 C 102.34608,227.80045 158.50654,263.77637 165.81824,266.5462"
       id="path13"
       sodipodi:nodetypes="cc" /><path
       style="fill:#ffffff;fill-opacity:0;stroke:#000000;stroke-width:0.621628;stroke-linejoin:round;stroke-dasharray:none;stroke-opacity:0.197422"
       d="M 67.837511,88.343946 C 106.49822,102.60188 145.72246,86.622193 145.72246,86.622193"
       id="path14"
       sodipodi:nodetypes="cc" /><path
       style="fill:#000000;fill-opacity:0;stroke:#000000;stroke-width:0.610002;stroke-linejoin:round;stroke-dasharray:none;stroke-opacity:1"
       d="m 51.296025,21.258819 c 0,0 17.946113,27.799955 57.547995,25.699869 39.60188,-2.100092 51.28596,-24.499825 51.28596,-24.499825 0,0 1.13961,-18.6007227 -49.00377,-18.6007227 -50.143394,0 -59.830185,17.4006787 -59.830185,17.4006787 z"
       id="path16"
       sodipodi:nodetypes="cscsc" /><path
       style="fill:#000000;fill-opacity:1;stroke:#000000;stroke-width:0.621628;stroke-linejoin:round;stroke-dasharray:none;stroke-opacity:1"
       d="m 51.439767,21.013811 0.07258,20.080059 c 0,0 13.889118,15.324507 55.164723,14.284459 41.0282,-1.033814 53.31922,-15.139962 53.31922,-15.139962 l 0.17182,-18.021222 c 0,0 -4.31897,18.221719 -54.45516,18.221719 -48.970238,0 -54.273229,-19.425053 -54.273229,-19.425053 z"
       id="path17"
       sodipodi:nodetypes="ccsccsc" /><path
       style="fill:#131313;fill-opacity:0;stroke:#000000;stroke-width:0.621628;stroke-linejoin:round;stroke-dasharray:none;stroke-opacity:1"
       d="M 54.165379,66.785048 V 43.848367 c 0,0 16.32341,13.328076 53.838621,11.468346 37.51521,-1.859736 48.68387,-12.708164 48.68387,-12.708164 l 0.57274,18.907263 c 0,0 5.6616,14.010029 -40.04968,22.47127 C 90.255002,88.976654 70.28353,78.213007 67.767757,77.75767 52.303475,67.839122 54.165379,66.785048 54.165379,66.785048 Z"
       id="path18"
       sodipodi:nodetypes="ccsccscc" /><path
       style="fill:#ff53ff;fill-opacity:0.311085;stroke:#000000;stroke-width:0.621628;stroke-linejoin:round;stroke-dasharray:none;stroke-opacity:0"
       d="m 51.348173,230.29358 c 58.306997,-20.51783 114.346047,1.41962 114.346047,1.41962 l -0.0604,34.03932 c 0,0 -22.08929,25.09672 -59.56373,25.07935 -36.180818,-0.0171 -54.180788,-25.28559 -54.180788,-25.28559 z"
       id="path19"
       sodipodi:nodetypes="cccscc" /><path
       style="fill:#1a1a1a;fill-opacity:0;stroke:#000000;stroke-width:0.621628;stroke-linejoin:round"
       d="m 51.006619,230.34746 c 67.545991,-20.52361 114.512111,1.34964 114.512111,1.34964 0,0 -26.18607,14.1711 -59.85388,14.39603 -33.667809,0.22501 -54.658231,-15.74567 -54.658231,-15.74567 z"
       id="path1"
       sodipodi:nodetypes="ccsc" /></g></svg>
