<?xml version="1.0" encoding="UTF-8" standalone="no"?>
<!-- Created with Inkscape (http://www.inkscape.org/) -->

<svg
   width="210mm"
   height="297mm"
   viewBox="0 0 210 297"
   version="1.1"
   id="svg1"
   xml:space="preserve"
   inkscape:version="1.4.2 (ebf0e940d0, 2025-05-08)"
   sodipodi:docname="fiole_06.svg"
   xmlns:inkscape="http://www.inkscape.org/namespaces/inkscape"
   xmlns:sodipodi="http://sodipodi.sourceforge.net/DTD/sodipodi-0.dtd"
   xmlns="http://www.w3.org/2000/svg"
   xmlns:svg="http://www.w3.org/2000/svg"><g
     inkscape:label="Layer 1"
     inkscape:groupmode="layer"
     id="layer1"><path
       style="fill:#000000;stroke-width:0.616965"
       d="m 66.554841,82.724848 c 0,10.35887 0,10.35887 0,10.35887"
       id="path11" /><path
       style="fill:#ffffff;fill-opacity:0;stroke:#000000;stroke-width:0.616965;stroke-opacity:1"
       d="M 49.457678,268.1842 C 45.668397,116.84062 45.668397,115.71957 45.668397,115.71957 c 0,0 0.505235,-16.815954 19.451646,-25.784463 V 79.158279 c 35.353487,12.503953 53.709917,6.150661 72.248997,0 l 4.05638,9.042606 c 0,0 15.39526,5.377692 18.42669,26.117365 l 1.76833,154.42648 c 0,0 -59.36543,56.89396 -112.162762,-0.56053 z"
       id="path12"
       sodipodi:nodetypes="ccccccccc" /><path
       style="fill:#ffffff;fill-opacity:0;stroke:#000000;stroke-width:0.617938;stroke-linejoin:round;stroke-dasharray:none;stroke-opacity:0.197422"
       d="m 49.710297,268.1842 c 49.335592,-38.06403 104.476313,-1.85679 111.655243,0.93084"
       id="path13"
       sodipodi:nodetypes="cc" /><path
       style="fill:#ffffff;fill-opacity:0;stroke:#000000;stroke-width:0.617936;stroke-linejoin:round;stroke-dasharray:none;stroke-opacity:0.197422"
       d="m 65.163914,89.76701 c 37.958716,14.34962 76.470736,-1.732823 76.470736,-1.732823"
       id="path14"
       sodipodi:nodetypes="cc" /><path
       style="fill:#000000;fill-opacity:0;stroke:#000000;stroke-width:0.606379;stroke-linejoin:round;stroke-dasharray:none;stroke-opacity:1"
       d="m 48.922782,22.250551 c 0,0 17.620254,27.978699 56.503058,25.865109 38.8828,-2.113595 50.35472,-24.65735 50.35472,-24.65735 0,0 1.11893,-18.7203166 -48.11397,-18.7203166 -49.232906,0 -58.743808,17.5125576 -58.743808,17.5125576 z"
       id="path16"
       sodipodi:nodetypes="cscsc" /><path
       style="fill:#000000;fill-opacity:1;stroke:#000000;stroke-width:0.617936;stroke-linejoin:round;stroke-dasharray:none;stroke-opacity:1"
       d="m 49.063915,22.003968 0.07127,20.209166 c 0,0 13.636923,15.423038 54.163055,14.376302 40.28322,-1.04046 52.35108,-15.237306 52.35108,-15.237306 l 0.16873,-18.137092 c 0,0 -4.24054,18.338878 -53.46638,18.338878 -48.081047,0 -53.287749,-19.549948 -53.287749,-19.549948 z"
       id="path17"
       sodipodi:nodetypes="ccsccsc" /><path
       style="fill:#131313;fill-opacity:0;stroke:#000000;stroke-width:0.617936;stroke-linejoin:round;stroke-dasharray:none;stroke-opacity:1"
       d="M 51.740036,68.069497 V 44.985341 c 0,0 16.027015,13.413771 52.861034,11.542083 36.83403,-1.871693 47.79989,-12.789872 47.79989,-12.789872 l 0.56234,19.028829 c 0,0 5.5588,14.100108 -39.32246,22.615752 C 87.174356,90.403786 67.565519,79.570933 65.095427,79.112668 49.911941,69.130348 51.740036,68.069497 51.740036,68.069497 Z"
       id="path18"
       sodipodi:nodetypes="ccsccscc" /><path
       style="fill:#ff53ff;fill-opacity:0.311085;stroke:#000000;stroke-width:0.617936;stroke-linejoin:round;stroke-dasharray:none;stroke-opacity:0"
       d="m 47.598723,158.16425 c 57.248277,-20.64976 112.160287,0.69348 112.160287,0.69348 l 1.42538,109.45853 c 0,0 -21.6882,25.25809 -58.48219,25.24061 -35.52386,-0.0172 -53.196993,-25.44818 -53.196993,-25.44818 z"
       id="path19"
       sodipodi:nodetypes="cccscc" /><path
       style="fill:#1a1a1a;fill-opacity:0;stroke:#000000;stroke-width:0.617936;stroke-linejoin:round"
       d="m 46.912001,157.73376 c 66.778029,-21.29082 112.932649,1.15151 112.932649,1.15151 0,0 -25.00588,12.09742 -54.95875,11.52199 -29.952861,-0.57542 -57.973899,-12.6735 -57.973899,-12.6735 z"
       id="path1"
       sodipodi:nodetypes="ccsc" /></g></svg>
