<?xml version="1.0" encoding="UTF-8" standalone="no"?>
<!-- Created with Inkscape (http://www.inkscape.org/) -->

<svg
   width="210mm"
   height="297mm"
   viewBox="0 0 210 297"
   version="1.1"
   id="svg1"
   xml:space="preserve"
   inkscape:version="1.4.2 (ebf0e940d0, 2025-05-08)"
   sodipodi:docname="fiole_vide.svg"
   xmlns:inkscape="http://www.inkscape.org/namespaces/inkscape"
   xmlns:sodipodi="http://sodipodi.sourceforge.net/DTD/sodipodi-0.dtd"
   xmlns="http://www.w3.org/2000/svg"
   xmlns:svg="http://www.w3.org/2000/svg"><sodipodi:namedview
     id="namedview1"
     pagecolor="#505050"
     bordercolor="#eeeeee"
     borderopacity="1"
     inkscape:showpageshadow="0"
     inkscape:pageopacity="0"
     inkscape:pagecheckerboard="0"
     inkscape:deskcolor="#505050"
     inkscape:document-units="mm"
     inkscape:zoom="0.43400623"
     inkscape:cx="41.474059"
     inkscape:cy="563.35596"
     inkscape:window-width="1886"
     inkscape:window-height="1004"
     inkscape:window-x="0"
     inkscape:window-y="0"
     inkscape:window-maximized="1"
     inkscape:current-layer="layer1" /><defs
     id="defs1" /><g
     inkscape:label="Layer 1"
     inkscape:groupmode="layer"
     id="layer1"><path
       style="fill:#000000;stroke-width:0.605664"
       d="m 72.920579,80.474238 c 0,10.299449 0,10.299449 0,10.299449"
       id="path11" /><path
       style="fill:#ffffff;fill-opacity:0;stroke:#000000;stroke-width:0.605664;stroke-opacity:1"
       d="M 56.348987,264.86976 C 52.676189,114.39432 52.676189,113.2797 52.676189,113.2797 c 0,0 0.489703,-16.719501 18.853699,-25.636561 V 76.928127 c 34.266712,12.43223 52.058862,6.115381 70.028042,0 l 3.93169,8.990736 c 0,0 14.92201,5.346847 17.86026,25.967557 l 1.71397,153.54067 c 0,0 -57.54053,56.5676 -108.714863,-0.55733 z"
       id="path12"
       sodipodi:nodetypes="ccccccccc" /><path
       style="fill:#ffffff;fill-opacity:0;stroke:#000000;stroke-width:0.606618;stroke-linejoin:round;stroke-dasharray:none;stroke-opacity:0.197422"
       d="m 56.59384,264.86976 c 47.81901,-37.84568 101.26469,-1.84613 108.22294,0.92551"
       id="path13"
       sodipodi:nodetypes="cc" /><path
       style="fill:#ffffff;fill-opacity:0;stroke:#000000;stroke-width:0.606616;stroke-linejoin:round;stroke-dasharray:none;stroke-opacity:0.197422"
       d="M 71.572411,87.476006 C 108.36427,101.74331 145.69242,85.753122 145.69242,85.753122"
       id="path14"
       sodipodi:nodetypes="cc" /><path
       style="fill:#000000;fill-opacity:0;stroke:#000000;stroke-width:0.595271;stroke-linejoin:round;stroke-dasharray:none;stroke-opacity:1"
       d="m 55.830534,20.346831 c 0,0 17.078604,27.818209 54.766146,25.716743 37.68753,-2.101471 48.80679,-24.515912 48.80679,-24.515912 0,0 1.08455,-18.612934 -46.63493,-18.612934 -47.719471,0 -56.938006,17.412103 -56.938006,17.412103 z"
       id="path16"
       sodipodi:nodetypes="cscsc" /><path
       style="fill:#000000;fill-opacity:1;stroke:#000000;stroke-width:0.606616;stroke-linejoin:round;stroke-dasharray:none;stroke-opacity:1"
       d="m 55.967328,20.101662 0.06907,20.093243 c 0,0 13.217722,15.33457 52.498082,14.293838 39.04491,-1.034492 50.74179,-15.149902 50.74179,-15.149902 l 0.16351,-18.033055 c 0,0 -4.11019,18.233683 -51.82282,18.233683 -46.603031,0 -51.649678,-19.437807 -51.649678,-19.437807 z"
       id="path17"
       sodipodi:nodetypes="ccsccsc" /><path
       style="fill:#131313;fill-opacity:0;stroke:#000000;stroke-width:0.606616;stroke-linejoin:round;stroke-dasharray:none;stroke-opacity:1"
       d="M 58.561185,65.902952 V 42.951211 c 0,0 15.534342,13.336827 51.236075,11.475876 35.70174,-1.860957 46.3305,-12.716508 46.3305,-12.716508 l 0.54507,18.919677 c 0,0 5.38792,14.019228 -38.11369,22.486025 C 92.906248,88.109129 73.90019,77.338414 71.506029,76.882779 56.789285,66.957718 58.561185,65.902952 58.561185,65.902952 Z"
       id="path18"
       sodipodi:nodetypes="ccsccscc" /></g></svg>
