<?xml version="1.0" encoding="UTF-8" standalone="no"?>
<!-- Created with Inkscape (http://www.inkscape.org/) -->

<svg
   width="210mm"
   height="297mm"
   viewBox="0 0 210 297"
   version="1.1"
   id="svg1"
   xml:space="preserve"
   inkscape:version="1.4.2 (ebf0e940d0, 2025-05-08)"
   sodipodi:docname="fiole_03.svg"
   xmlns:inkscape="http://www.inkscape.org/namespaces/inkscape"
   xmlns:sodipodi="http://sodipodi.sourceforge.net/DTD/sodipodi-0.dtd"
   xmlns="http://www.w3.org/2000/svg"
   xmlns:svg="http://www.w3.org/2000/svg"><g
     inkscape:label="Layer 1"
     inkscape:groupmode="layer"
     id="layer1"><path
       style="fill:#000000;stroke-width:0.611444"
       d="m 69.448731,83.572411 c 0,10.316167 0,10.316167 0,10.316167"
       id="path11" /><path
       style="fill:#ffffff;fill-opacity:0;stroke:#000000;stroke-width:0.611444;stroke-opacity:1"
       d="M 52.586704,268.26723 C 48.849538,117.54754 48.849538,116.43112 48.849538,116.43112 c 0,0 0.498285,-16.746639 19.184129,-25.678172 V 80.020545 c 34.867273,12.452409 52.971253,6.125306 71.255363,0 l 4.00058,9.005329 c 0,0 15.18356,5.355525 18.17328,26.009696 l 1.744,153.78989 c 0,0 -58.54897,56.65942 -110.620186,-0.55823 z"
       id="path12"
       sodipodi:nodetypes="ccccccccc" /><path
       style="fill:#ffffff;fill-opacity:0;stroke:#000000;stroke-width:0.612407;stroke-linejoin:round;stroke-dasharray:none;stroke-opacity:0.197422"
       d="M 52.835849,268.26723 C 101.49294,230.36012 155.8753,266.4181 162.9555,269.19424"
       id="path13"
       sodipodi:nodetypes="cc" /><path
       style="fill:#ffffff;fill-opacity:0;stroke:#000000;stroke-width:0.612405;stroke-linejoin:round;stroke-dasharray:none;stroke-opacity:0.197422"
       d="m 68.076935,90.585544 c 37.436685,14.290466 75.419035,-1.72568 75.419035,-1.72568"
       id="path14"
       sodipodi:nodetypes="cc" /><path
       style="fill:#000000;fill-opacity:0;stroke:#000000;stroke-width:0.600952;stroke-linejoin:round;stroke-dasharray:none;stroke-opacity:1"
       d="m 52.059166,23.34741 c 0,0 17.377924,27.863362 55.725984,25.758485 38.34805,-2.104882 49.66219,-24.555704 49.66219,-24.555704 0,0 1.10353,-18.6431446 -47.45227,-18.6431446 -48.555805,0 -57.935904,17.4403636 -57.935904,17.4403636 z"
       id="path16"
       sodipodi:nodetypes="cscsc" /><path
       style="fill:#000000;fill-opacity:1;stroke:#000000;stroke-width:0.612405;stroke-linejoin:round;stroke-dasharray:none;stroke-opacity:1"
       d="m 52.198358,23.101843 0.07028,20.125857 c 0,0 13.449375,15.359459 53.418172,14.317039 39.72921,-1.036171 51.63109,-15.174493 51.63109,-15.174493 l 0.16638,-18.062325 c 0,0 -4.18224,18.263279 -52.73107,18.263279 -47.419806,0 -52.5549,-19.469357 -52.5549,-19.469357 z"
       id="path17"
       sodipodi:nodetypes="ccsccsc" /><path
       style="fill:#131313;fill-opacity:0;stroke:#000000;stroke-width:0.612405;stroke-linejoin:round;stroke-dasharray:none;stroke-opacity:1"
       d="M 54.837674,68.977475 V 45.98848 c 0,0 15.806597,13.358474 52.134046,11.494502 36.32745,-1.863977 47.14249,-12.737148 47.14249,-12.737148 l 0.55461,18.950386 c 0,0 5.48235,14.041983 -38.78166,22.522523 C 89.784669,91.219694 70.44551,80.431498 68.009389,79.975122 53.03472,70.033952 54.837674,68.977475 54.837674,68.977475 Z"
       id="path18"
       sodipodi:nodetypes="ccsccscc" /><path
       style="fill:#ff53ff;fill-opacity:0.311085;stroke:#000000;stroke-width:0.612405;stroke-linejoin:round;stroke-dasharray:none;stroke-opacity:0"
       d="m 51.676653,220.2466 c 56.460947,-20.56463 110.292737,0.93778 110.292737,0.93778 l 0.80746,47.21437 c 0,0 -21.38993,25.15396 -57.67789,25.13656 -35.035304,-0.0171 -52.46538,-25.34327 -52.46538,-25.34327 z"
       id="path19"
       sodipodi:nodetypes="cccscc" /><path
       style="fill:#1a1a1a;fill-opacity:0;stroke:#000000;stroke-width:0.612405;stroke-linejoin:round"
       d="m 51.234727,220.17175 c 19.686284,-5.73088 38.317542,-8.64204 54.158333,-8.72519 34.71617,-0.18222 57.31445,9.86046 57.31445,9.86046 0,0 -22.40716,9.46062 -56.63719,10.46975 -34.680417,-1.51369 -54.835593,-11.60502 -54.835593,-11.60502 z"
       id="path1"
       sodipodi:nodetypes="csccc" /></g></svg>
