<?xml version="1.0" encoding="UTF-8" standalone="no"?>
<!-- Created with Inkscape (http://www.inkscape.org/) -->

<svg
   width="210mm"
   height="297mm"
   viewBox="0 0 210 297"
   version="1.1"
   id="svg1"
   xml:space="preserve"
   inkscape:version="1.4.2 (ebf0e940d0, 2025-05-08)"
   sodipodi:docname="fiole_04.svg"
   xmlns:inkscape="http://www.inkscape.org/namespaces/inkscape"
   xmlns:sodipodi="http://sodipodi.sourceforge.net/DTD/sodipodi-0.dtd"
   xmlns="http://www.w3.org/2000/svg"
   xmlns:svg="http://www.w3.org/2000/svg"><sodipodi:namedview
     id="namedview1"
     pagecolor="#505050"
     bordercolor="#eeeeee"
     borderopacity="1"
     inkscape:showpageshadow="0"
     inkscape:pageopacity="0"
     inkscape:pagecheckerboard="0"
     inkscape:deskcolor="#505050"
     inkscape:document-units="mm"
     inkscape:zoom="0.65795494"
     inkscape:cx="37.996523"
     inkscape:cy="465.83737"
     inkscape:window-width="1886"
     inkscape:window-height="1004"
     inkscape:window-x="0"
     inkscape:window-y="0"
     inkscape:window-maximized="1"
     inkscape:current-layer="layer1"
     showguides="true" /><defs
     id="defs1" /><g
     inkscape:label="Layer 1"
     inkscape:groupmode="layer"
     id="layer1"><path
       style="fill:#000000;stroke-width:0.611589"
       d="m 68.167987,82.684386 c 0,10.357378 0,10.357378 0,10.357378"
       id="path11" /><path
       style="fill:#ffffff;fill-opacity:0;stroke:#000000;stroke-width:0.611589;stroke-opacity:1"
       d="M 51.365109,268.11702 C 47.641051,116.79525 47.641051,115.67435 47.641051,115.67435 c 0,0 0.496537,-16.813529 19.116835,-25.780742 V 79.118331 c 34.744964,12.502153 52.785454,6.149776 71.005424,0 l 3.98657,9.041303 c 0,0 15.13026,5.376919 18.10951,26.113606 l 1.73791,154.40423 c 0,0 -58.3436,56.88577 -110.232191,-0.56045 z"
       id="path12"
       sodipodi:nodetypes="ccccccccc" /><path
       style="fill:#ffffff;fill-opacity:0;stroke:#000000;stroke-width:0.612552;stroke-linejoin:round;stroke-dasharray:none;stroke-opacity:0.197422"
       d="m 51.61338,268.11702 c 48.4864,-38.05854 102.67802,-1.85652 109.7334,0.93071"
       id="path13"
       sodipodi:nodetypes="cc" /><path
       style="fill:#ffffff;fill-opacity:0;stroke:#000000;stroke-width:0.61255;stroke-linejoin:round;stroke-dasharray:none;stroke-opacity:0.197422"
       d="M 66.801002,89.725535 C 104.10638,104.07308 141.95551,87.992961 141.95551,87.992961"
       id="path14"
       sodipodi:nodetypes="cc" /><path
       style="fill:#000000;fill-opacity:0;stroke:#000000;stroke-width:0.601094;stroke-linejoin:round;stroke-dasharray:none;stroke-opacity:1"
       d="m 50.83942,22.218798 c 0,0 17.316966,27.974669 55.53052,25.861385 38.21354,-2.11329 49.48799,-24.653799 49.48799,-24.653799 0,0 1.09967,-18.7176231 -47.28582,-18.7176231 -48.385494,0 -57.73269,17.5100371 -57.73269,17.5100371 z"
       id="path16"
       sodipodi:nodetypes="cscsc" /><path
       style="fill:#000000;fill-opacity:1;stroke:#000000;stroke-width:0.61255;stroke-linejoin:round;stroke-dasharray:none;stroke-opacity:1"
       d="m 50.978124,21.97225 0.07003,20.206256 c 0,0 13.402198,15.420818 53.230806,14.374232 39.58985,-1.04031 51.44999,-15.235111 51.44999,-15.235111 l 0.16583,-18.134481 c 0,0 -4.16756,18.336237 -52.54611,18.336237 -47.253472,0 -52.370553,-19.547133 -52.370553,-19.547133 z"
       id="path17"
       sodipodi:nodetypes="ccsccsc" /><path
       style="fill:#131313;fill-opacity:0;stroke:#000000;stroke-width:0.61255;stroke-linejoin:round;stroke-dasharray:none;stroke-opacity:1"
       d="M 53.608182,68.031145 V 44.950314 c 0,0 15.751151,13.411839 51.951188,11.540421 36.20001,-1.871424 46.97712,-12.78803 46.97712,-12.78803 l 0.55267,19.026089 c 0,0 5.46311,14.098077 -38.64563,22.612494 C 88.43259,90.362219 69.16127,79.530925 66.733693,79.072727 51.811552,69.091844 53.608182,68.031145 53.608182,68.031145 Z"
       id="path18"
       sodipodi:nodetypes="ccsccscc" /><path
       style="fill:#ff53ff;fill-opacity:0.311085;stroke:#000000;stroke-width:0.61255;stroke-linejoin:round;stroke-dasharray:none;stroke-opacity:0"
       d="m 50.458249,208.46061 c 56.262921,-20.64678 110.335971,4.08343 110.335971,4.08343 l 0.37453,55.70502 c 0,0 -21.3149,25.25445 -57.47557,25.23696 -34.912425,-0.0172 -52.281361,-25.4445 -52.281361,-25.4445 z"
       id="path19"
       sodipodi:nodetypes="cccscc" /><path
       style="fill:#1a1a1a;fill-opacity:0;stroke:#000000;stroke-width:0.61255;stroke-linejoin:round"
       d="m 49.89334,208.54557 c 65.62864,-21.28776 110.99521,3.88359 110.99521,3.88359 0,0 -27.65323,11.0754 -57.09052,10.50006 -29.437323,-0.57534 -53.90469,-14.38365 -53.90469,-14.38365 z"
       id="path1"
       sodipodi:nodetypes="ccsc" /></g></svg>
