<svg xmlns="http://www.w3.org/2000/svg" xmlns:svg="http://www.w3.org/2000/svg" id="svg1" width="210mm" height="297mm" version="1.1" viewBox="0 0 210 297" xml:space="preserve"><g id="layer1"><path style="fill:#000;stroke-width:.636881" id="path11" d="m 63.140407,81.508474 c 0,10.337376 0,10.337376 0,10.337376"/><path style="fill:#fff;fill-opacity:0;stroke:#000;stroke-width:.636881;stroke-opacity:1" id="path12" d="M 44.883783,266.583 C 40.837529,115.55346 40.837529,114.43473 40.837529,114.43473 c 0,0 0.539497,-16.781061 20.770778,-25.730957 V 77.949306 c 37.751015,12.478009 57.352303,6.137899 77.148623,0 l 4.33148,9.023843 c 0,0 16.4393,5.366535 19.67631,26.063171 l 1.88825,154.10605 c 0,0 -63.39135,56.77591 -119.769187,-0.55937 z"/><path style="fill:#fff;fill-opacity:0;stroke:#000;stroke-width:.637884;stroke-linejoin:round;stroke-dasharray:none;stroke-opacity:.197422" id="path13" d="M 45.153534,266.583 C 97.834867,228.59796 156.715,264.73007 164.38079,267.51191"/><path style="fill:#fff;fill-opacity:0;stroke:#000;stroke-width:.637882;stroke-linejoin:round;stroke-dasharray:none;stroke-opacity:.197422" id="path14" d="M 61.655154,88.536025 C 102.18808,102.85586 143.31183,86.806797 143.31183,86.806797"/><path style="fill:#000;fill-opacity:0;stroke:#000;stroke-width:.625952;stroke-linejoin:round;stroke-dasharray:none;stroke-opacity:1" id="path16" d="m 44.312614,21.159658 c 0,0 18.815188,27.920645 60.334876,25.811441 41.51967,-2.109209 53.76957,-24.606187 53.76957,-24.606187 0,0 1.19481,-18.6814735 -51.37687,-18.6814735 -52.571683,0 -62.727576,17.4762195 -62.727576,17.4762195 z"/><path style="fill:#000;fill-opacity:1;stroke:#000;stroke-width:.637882;stroke-linejoin:round;stroke-dasharray:none;stroke-opacity:1" id="path17" d="m 44.463317,20.913587 0.0761,20.167233 c 0,0 14.561724,15.391036 57.836183,14.346473 43.01507,-1.038302 55.90131,-15.20569 55.90131,-15.20569 l 0.18018,-18.099459 c 0,0 -4.52813,18.300826 -57.09226,18.300826 -51.341711,0 -56.90151,-19.509383 -56.90151,-19.509383 z"/><path style="fill:#131313;fill-opacity:0;stroke:#000;stroke-width:.637882;stroke-linejoin:round;stroke-dasharray:none;stroke-opacity:1" id="path18" d="M 47.320922,66.883532 V 43.847276 c 0,0 17.113903,13.385937 56.445858,11.518133 39.33196,-1.867809 51.04147,-12.763334 51.04147,-12.763334 l 0.60049,18.989345 c 0,0 5.93577,14.070852 -41.98916,22.568826 C 85.158255,89.171479 64.219625,78.361104 61.582022,77.90379 45.368852,67.942182 47.320922,66.883532 47.320922,66.883532 Z"/><path style="fill:#ff53ff;fill-opacity:.311085;stroke:#000;stroke-width:.637882;stroke-linejoin:round;stroke-dasharray:none;stroke-opacity:0" id="path19" d="m 42.50326,137.77204 c 61.13062,-20.6069 119.36926,3.39534 119.36926,3.39534 l 2.31483,125.54741 c 0,0 -23.15901,25.20568 -62.44822,25.18823 -37.93294,-0.0172 -56.804594,-25.39537 -56.804594,-25.39537 z"/><path style="fill:#1a1a1a;fill-opacity:0;stroke:#000;stroke-width:.637882;stroke-linejoin:round" id="path1" d="m 41.891512,138.60637 c 3.521034,-1.04914 8.080505,-2.49512 11.490866,-3.33938 65.654972,-16.25338 109.251132,6.11015 109.251132,6.11015 0,0 -25.76026,9.94739 -57.7444,9.37317 -31.984152,-0.57423 -62.997598,-12.14394 -62.997598,-12.14394 z"/></g></svg>