<?xml version="1.0" encoding="UTF-8" standalone="no"?>
<!-- Created with Inkscape (http://www.inkscape.org/) -->

<svg
   width="210mm"
   height="297mm"
   viewBox="0 0 210 297"
   version="1.1"
   id="svg1"
   xml:space="preserve"
   inkscape:version="1.4.2 (ebf0e940d0, 2025-05-08)"
   sodipodi:docname="fiole_02.svg"
   xmlns:inkscape="http://www.inkscape.org/namespaces/inkscape"
   xmlns:sodipodi="http://sodipodi.sourceforge.net/DTD/sodipodi-0.dtd"
   xmlns="http://www.w3.org/2000/svg"
   xmlns:svg="http://www.w3.org/2000/svg"><sodipodi:namedview
     id="namedview1"
     pagecolor="#505050"
     bordercolor="#eeeeee"
     borderopacity="1"
     inkscape:showpageshadow="0"
     inkscape:pageopacity="0"
     inkscape:pagecheckerboard="0"
     inkscape:deskcolor="#505050"
     inkscape:document-units="mm"
     inkscape:zoom="0.56093059"
     inkscape:cx="44.568794"
     inkscape:cy="451.92757"
     inkscape:window-width="1886"
     inkscape:window-height="1004"
     inkscape:window-x="0"
     inkscape:window-y="0"
     inkscape:window-maximized="1"
     inkscape:current-layer="layer1" /><defs
     id="defs1" /><g
     inkscape:label="Layer 1"
     inkscape:groupmode="layer"
     id="layer1"><path
       style="fill:#000000;stroke-width:0.614979"
       d="m 65.708042,81.759469 c 0,10.356698 0,10.356698 0,10.356698"
       id="path11" /><path
       style="fill:#ffffff;fill-opacity:0;stroke:#000000;stroke-width:0.614979;stroke-opacity:1"
       d="M 48.717234,267.17995 C 44.951525,115.86809 44.951525,114.74727 44.951525,114.74727 c 0,0 0.502091,-16.812428 19.330645,-25.779052 v -10.77457 c 35.133564,12.501334 53.3758,6.149373 71.79955,0 l 4.03116,9.040711 c 0,0 15.29949,5.376566 18.31207,26.111891 l 1.75733,154.39412 c 0,0 -58.99614,56.88203 -111.465046,-0.56042 z"
       id="path12"
       sodipodi:nodetypes="ccccccccc" /><path
       style="fill:#ffffff;fill-opacity:0;stroke:#000000;stroke-width:0.615948;stroke-linejoin:round;stroke-dasharray:none;stroke-opacity:0.197422"
       d="M 48.968282,267.17995 C 97.996979,229.12389 152.79468,265.32356 159.92897,268.1106"
       id="path13"
       sodipodi:nodetypes="cc" /><path
       style="fill:#ffffff;fill-opacity:0;stroke:#000000;stroke-width:0.615946;stroke-linejoin:round;stroke-dasharray:none;stroke-opacity:0.197422"
       d="m 64.325769,88.800156 c 37.722591,14.346604 75.995041,-1.73246 75.995041,-1.73246"
       id="path14"
       sodipodi:nodetypes="cc" /><path
       style="fill:#000000;fill-opacity:0;stroke:#000000;stroke-width:0.604427;stroke-linejoin:round;stroke-dasharray:none;stroke-opacity:1"
       d="m 48.185666,21.297848 c 0,0 17.510646,27.972835 56.151564,25.859688 38.64093,-2.113151 50.04148,-24.652181 50.04148,-24.652181 0,0 1.11198,-18.7163934 -47.81466,-18.7163934 -48.926645,0 -58.378384,17.5088864 -58.378384,17.5088864 z"
       id="path16"
       sodipodi:nodetypes="cscsc" /><path
       style="fill:#000000;fill-opacity:1;stroke:#000000;stroke-width:0.615946;stroke-linejoin:round;stroke-dasharray:none;stroke-opacity:1"
       d="m 48.32592,21.051318 0.07083,20.204929 c 0,0 13.552095,15.419806 53.82613,14.373289 40.03263,-1.040241 52.02541,-15.234112 52.02541,-15.234112 l 0.16764,-18.13329 c 0,0 -4.21416,18.335034 -53.13377,18.335034 -47.781961,0 -52.956274,-19.54585 -52.956274,-19.54585 z"
       id="path17"
       sodipodi:nodetypes="ccsccsc" /><path
       style="fill:#131313;fill-opacity:0;stroke:#000000;stroke-width:0.615946;stroke-linejoin:round;stroke-dasharray:none;stroke-opacity:1"
       d="M 50.985395,67.10719 V 44.027874 c 0,0 15.927318,13.410959 52.532215,11.539663 36.60488,-1.8713 47.50252,-12.787191 47.50252,-12.787191 l 0.55886,19.02484 c 0,0 5.52422,14.097154 -39.07786,22.611012 C 86.199294,89.436798 66.712435,78.606216 64.257707,78.148047 49.168671,68.167819 50.985395,67.10719 50.985395,67.10719 Z"
       id="path18"
       sodipodi:nodetypes="ccsccscc" /><path
       style="fill:#ff53ff;fill-opacity:0.311085;stroke:#000000;stroke-width:0.615946;stroke-linejoin:round;stroke-dasharray:none;stroke-opacity:0"
       d="m 48.672865,246.24241 c 56.892155,-20.64544 110.698775,0.94145 110.698775,0.94145 l 0.37729,20.12813 c 0,0 -21.55329,25.2528 -58.11839,25.23531 -35.302876,-0.0172 -52.866073,-25.44284 -52.866073,-25.44284 z"
       id="path19"
       sodipodi:nodetypes="cccscc" /><path
       style="fill:#1a1a1a;fill-opacity:0;stroke:#000000;stroke-width:0.600221;stroke-linejoin:round"
       d="m 48.161835,245.79052 c 63.709685,-19.48203 111.598835,1.05715 111.598835,1.05715 0,0 -26.36753,21.29431 -61.571766,21.29431 -35.204231,0 -50.027069,-22.35146 -50.027069,-22.35146 z"
       id="path1" /></g></svg>
