<?xml version="1.0" encoding="UTF-8" standalone="no"?>
<!-- Created with Inkscape (http://www.inkscape.org/) -->

<svg
   width="210mm"
   height="297mm"
   viewBox="0 0 210 297"
   version="1.1"
   id="svg1"
   xml:space="preserve"
   inkscape:version="1.4.2 (ebf0e940d0, 2025-05-08)"
   sodipodi:docname="fiole_05.svg"
   xmlns:inkscape="http://www.inkscape.org/namespaces/inkscape"
   xmlns:sodipodi="http://sodipodi.sourceforge.net/DTD/sodipodi-0.dtd"
   xmlns="http://www.w3.org/2000/svg"
   xmlns:svg="http://www.w3.org/2000/svg"><g
     inkscape:label="Layer 1"
     inkscape:groupmode="layer"
     id="layer1"><path
       style="fill:#000000;stroke-width:0.618234"
       d="m 67.630898,82.269971 c 0,10.374717 0,10.374717 0,10.374717"
       id="path11" /><path
       style="fill:#ffffff;fill-opacity:0;stroke:#000000;stroke-width:0.618234;stroke-opacity:1"
       d="M 50.489541,268.01301 C 46.690466,116.43793 46.690466,115.31517 46.690466,115.31517 c 0,0 0.50654,-16.841685 19.501926,-25.823908 V 78.697947 c 35.444868,12.523082 53.848748,6.160071 72.435748,0 l 4.06687,9.056438 c 0,0 15.43505,5.385921 18.47433,26.157325 l 1.77289,154.6627 c 0,0 -59.51887,56.98099 -112.452689,-0.5614 z"
       id="path12"
       sodipodi:nodetypes="ccccccccc" /><path
       style="fill:#ffffff;fill-opacity:0;stroke:#000000;stroke-width:0.619209;stroke-linejoin:round;stroke-dasharray:none;stroke-opacity:0.197422"
       d="m 50.742813,268.01301 c 49.463127,-38.12224 104.746367,-1.85962 111.943857,0.93227"
       id="path13"
       sodipodi:nodetypes="cc" /><path
       style="fill:#ffffff;fill-opacity:0;stroke:#000000;stroke-width:0.619206;stroke-linejoin:round;stroke-dasharray:none;stroke-opacity:0.197422"
       d="M 66.236377,89.322907 C 104.29322,103.69447 142.90479,87.587433 142.90479,87.587433"
       id="path14"
       sodipodi:nodetypes="cc" /><path
       style="fill:#000000;fill-opacity:0;stroke:#000000;stroke-width:0.607626;stroke-linejoin:round;stroke-dasharray:none;stroke-opacity:1"
       d="m 49.953263,21.703165 c 0,0 17.665801,28.021498 56.649117,25.904676 38.98331,-2.116828 50.48487,-24.695069 50.48487,-24.695069 0,0 1.12183,-18.7489562 -48.23834,-18.7489562 -49.36016,0 -58.895647,17.5393492 -58.895647,17.5393492 z"
       id="path16"
       sodipodi:nodetypes="cscsc" /><path
       style="fill:#000000;fill-opacity:1;stroke:#000000;stroke-width:0.619206;stroke-linejoin:round;stroke-dasharray:none;stroke-opacity:1"
       d="m 50.094761,21.456204 0.07145,20.240081 c 0,0 13.672173,15.446631 54.303069,14.398294 40.38735,-1.042051 52.48639,-15.260614 52.48639,-15.260614 l 0.16918,-18.164838 c 0,0 -4.25152,18.366932 -53.60459,18.366932 -48.205341,0 -53.425501,-19.579855 -53.425501,-19.579855 z"
       id="path17"
       sodipodi:nodetypes="ccsccsc" /><path
       style="fill:#131313;fill-opacity:0;stroke:#000000;stroke-width:0.619206;stroke-linejoin:round;stroke-dasharray:none;stroke-opacity:1"
       d="M 52.777799,67.592202 V 44.472733 c 0,0 16.068444,13.43429 52.997681,11.559739 36.92924,-1.874555 47.92343,-12.809437 47.92343,-12.809437 l 0.56381,19.057939 c 0,0 5.57317,14.121678 -39.42412,22.650348 C 88.303714,89.960657 68.644189,79.111232 66.167712,78.652267 50.944979,68.654675 52.777799,67.592202 52.777799,67.592202 Z"
       id="path18"
       sodipodi:nodetypes="ccsccscc" /><path
       style="fill:#ff53ff;fill-opacity:0.311085;stroke:#000000;stroke-width:0.619206;stroke-linejoin:round;stroke-dasharray:none;stroke-opacity:0"
       d="m 49.416808,175.94269 c 57.396262,-20.68134 112.186532,0.98677 112.186532,0.98677 l 0.90172,91.21582 c 0,0 -21.74426,25.29673 -58.63337,25.27922 -35.61568,-0.0172 -53.334497,-25.4871 -53.334497,-25.4871 z"
       id="path19"
       sodipodi:nodetypes="cccscc" /><path
       style="fill:#1a1a1a;fill-opacity:0;stroke:#000000;stroke-width:0.619206;stroke-linejoin:round"
       d="m 48.72831,175.80376 c 66.95064,-21.3234 112.97128,1.01062 112.97128,1.01062 0,0 -25.87193,11.38189 -55.90222,10.80559 -30.030291,-0.5763 -57.06906,-11.81621 -57.06906,-11.81621 z"
       id="path1"
       sodipodi:nodetypes="ccsc" /></g></svg>
