<?xml version="1.0" encoding="UTF-8" standalone="no"?>
<!-- Created with Inkscape (http://www.inkscape.org/) -->

<svg
   width="210mm"
   height="297mm"
   viewBox="0 0 210 297"
   version="1.1"
   id="svg1"
   xml:space="preserve"
   inkscape:version="1.4.2 (ebf0e940d0, 2025-05-08)"
   sodipodi:docname="fiole_08.svg"
   xmlns:inkscape="http://www.inkscape.org/namespaces/inkscape"
   xmlns:sodipodi="http://sodipodi.sourceforge.net/DTD/sodipodi-0.dtd"
   xmlns="http://www.w3.org/2000/svg"
   xmlns:svg="http://www.w3.org/2000/svg"><g
     inkscape:label="Layer 1"
     inkscape:groupmode="layer"
     id="layer1"><path
       style="fill:#000000;stroke-width:0.64529"
       d="m 63.451857,82.20554 c 0,10.366309 0,10.366309 0,10.366309"
       id="path11" /><path
       style="fill:#ffffff;fill-opacity:0;stroke:#000000;stroke-width:0.64529;stroke-opacity:1"
       d="M 44.762214,267.79807 C 40.619989,116.34581 40.619989,115.22395 40.619989,115.22395 c 0,0 0.552293,-16.828027 21.263429,-25.802972 V 78.63641 c 38.646412,12.512934 58.712622,6.155079 78.978482,0 l 4.43421,9.0491 c 0,0 16.82922,5.381555 20.143,26.13612 l 1.93304,154.53738 c 0,0 -64.8949,56.93482 -122.609936,-0.56094 z"
       id="path12"
       sodipodi:nodetypes="ccccccccc" /><path
       style="fill:#ffffff;fill-opacity:0;stroke:#000000;stroke-width:0.646307;stroke-linejoin:round;stroke-dasharray:none;stroke-opacity:0.197422"
       d="m 45.038363,267.79807 c 53.930856,-38.09136 114.207547,-1.85811 122.055147,0.93152"
       id="path13"
       sodipodi:nodetypes="cc" /><path
       style="fill:#ffffff;fill-opacity:0;stroke:#000000;stroke-width:0.646305;stroke-linejoin:round;stroke-dasharray:none;stroke-opacity:0.197422"
       d="m 61.931376,89.25276 c 41.494314,14.35991 83.593454,-1.734068 83.593454,-1.734068"
       id="path14"
       sodipodi:nodetypes="cc" /><path
       style="fill:#000000;fill-opacity:0;stroke:#000000;stroke-width:0.634218;stroke-linejoin:round;stroke-dasharray:none;stroke-opacity:1"
       d="m 44.177497,21.687815 c 0,0 19.261457,27.998791 61.765923,25.883684 42.50446,-2.115112 55.04491,-24.675057 55.04491,-24.675057 0,0 1.22315,-18.7337599 -52.59546,-18.7337599 -53.818597,0 -64.215373,17.5251329 -64.215373,17.5251329 z"
       id="path16"
       sodipodi:nodetypes="cscsc" /><path
       style="fill:#000000;fill-opacity:1;stroke:#000000;stroke-width:0.646305;stroke-linejoin:round;stroke-dasharray:none;stroke-opacity:1"
       d="m 44.331775,21.441055 0.0779,20.223679 c 0,0 14.907107,15.434114 59.207965,14.386626 44.03533,-1.041207 57.22722,-15.248248 57.22722,-15.248248 l 0.18445,-18.150117 c 0,0 -4.63553,18.352048 -58.4464,18.352048 -52.559467,0 -58.251136,-19.563988 -58.251136,-19.563988 z"
       id="path17"
       sodipodi:nodetypes="ccsccsc" /><path
       style="fill:#131313;fill-opacity:0;stroke:#000000;stroke-width:0.646305;stroke-linejoin:round;stroke-dasharray:none;stroke-opacity:1"
       d="M 47.257158,67.539665 V 44.438932 c 0,0 17.51982,13.423403 57.784672,11.550371 40.26486,-1.873036 52.2521,-12.799056 52.2521,-12.799056 l 0.61473,19.042494 c 0,0 6.07656,14.110234 -42.98509,22.631993 C 85.991936,89.889993 64.556673,79.04936 61.85651,78.590767 45.258788,68.601278 47.257158,67.539665 47.257158,67.539665 Z"
       id="path18"
       sodipodi:nodetypes="ccsccscc" /><path
       style="fill:#ff53ff;fill-opacity:0.311085;stroke:#000000;stroke-width:0.646305;stroke-linejoin:round;stroke-dasharray:none;stroke-opacity:0"
       d="m 41.766839,125.58281 c 62.580551,-20.66458 123.596491,-0.84856 123.596491,-0.84856 l 1.53215,143.19598 c 0,0 -23.7083,25.27623 -63.92939,25.25873 -38.832658,-0.0172 -58.15192,-25.46644 -58.15192,-25.46644 z"
       id="path19"
       sodipodi:nodetypes="cccscc" /><path
       style="fill:#1a1a1a;fill-opacity:0;stroke:#000000;stroke-width:0.646305;stroke-linejoin:round"
       d="m 40.861388,125.56878 c 3.604547,-1.05208 8.272162,-2.50211 11.763412,-3.34873 67.21221,-16.29888 112.67999,2.44098 112.67999,2.44098 0,0 -27.20884,13.66151 -59.9516,13.08567 -32.742764,-0.57583 -64.491802,-12.17792 -64.491802,-12.17792 z"
       id="path1"
       sodipodi:nodetypes="cscsc" /></g></svg>
