<?xml version="1.0" encoding="UTF-8" standalone="no"?>
<!-- Created with Inkscape (http://www.inkscape.org/) -->

<svg
   width="210mm"
   height="297mm"
   viewBox="0 0 210 297"
   version="1.1"
   id="svg1"
   xml:space="preserve"
   inkscape:version="1.4.2 (ebf0e940d0, 2025-05-08)"
   sodipodi:docname="fiole_1.svg"
   xmlns:inkscape="http://www.inkscape.org/namespaces/inkscape"
   xmlns:sodipodi="http://sodipodi.sourceforge.net/DTD/sodipodi-0.dtd"
   xmlns="http://www.w3.org/2000/svg"
   xmlns:svg="http://www.w3.org/2000/svg"><g
     inkscape:label="Layer 1"
     inkscape:groupmode="layer"
     id="layer1"><path
       style="fill:#000000;stroke-width:0.634579"
       d="m 69.088626,79.463583 c 0,10.355429 0,10.355429 0,10.355429"
       id="path11" /><path
       style="fill:#ffffff;fill-opacity:0;stroke:#000000;stroke-width:0.634579;stroke-opacity:1"
       d="m 50.995354,264.86125 c -4.010051,-151.29322 -4.010051,-152.4139 -4.010051,-152.4139 0,0 0.53467,-16.810381 20.584932,-25.775901 v -10.77324 c 37.413235,12.499799 56.839135,6.14861 76.458335,0 l 4.29271,9.039601 c 0,0 16.29221,5.375903 19.50026,26.10869 l 1.87136,154.37512 c 0,0 -62.82415,56.87503 -118.697546,-0.56037 z"
       id="path12"
       sodipodi:nodetypes="ccccccccc" /><path
       style="fill:#ffffff;fill-opacity:0;stroke:#000000;stroke-width:0.635577;stroke-linejoin:round;stroke-dasharray:none;stroke-opacity:0.197422"
       d="M 51.262691,264.86125 C 103.47266,226.8099 161.82595,263.00509 169.42316,265.79181"
       id="path13"
       sodipodi:nodetypes="cc" /><path
       style="fill:#ffffff;fill-opacity:0;stroke:#000000;stroke-width:0.635575;stroke-linejoin:round;stroke-dasharray:none;stroke-opacity:0.197422"
       d="m 67.616662,86.503406 c 40.170248,14.344834 80.926048,-1.73224 80.926048,-1.73224"
       id="path14"
       sodipodi:nodetypes="cc" /><path
       style="fill:#000000;fill-opacity:0;stroke:#000000;stroke-width:0.623689;stroke-linejoin:round;stroke-dasharray:none;stroke-opacity:1"
       d="m 50.429295,19.009403 c 0,0 18.646839,27.969399 59.795015,25.856505 41.14818,-2.112893 53.28847,-24.649149 53.28847,-24.649149 0,0 1.18412,-18.7140915 -50.91717,-18.7140915 -52.101293,0 -62.166315,17.5067355 -62.166315,17.5067355 z"
       id="path16"
       sodipodi:nodetypes="cscsc" /><path
       style="fill:#000000;fill-opacity:1;stroke:#000000;stroke-width:0.635575;stroke-linejoin:round;stroke-dasharray:none;stroke-opacity:1"
       d="m 50.57865,18.762901 0.07542,20.202439 c 0,0 14.431433,15.417919 57.31868,14.371532 42.6302,-1.040117 55.40114,-15.232241 55.40114,-15.232241 l 0.17857,-18.131062 c 0,0 -4.48761,18.332785 -56.58143,18.332785 -50.882322,0 -56.392376,-19.543453 -56.392376,-19.543453 z"
       id="path17"
       sodipodi:nodetypes="ccsccsc" /><path
       style="fill:#131313;fill-opacity:0;stroke:#000000;stroke-width:0.635575;stroke-linejoin:round;stroke-dasharray:none;stroke-opacity:1"
       d="M 53.410686,64.813112 V 41.736628 c 0,0 16.960777,13.40932 55.940814,11.538249 38.98002,-1.871073 50.58476,-12.785623 50.58476,-12.785623 l 0.59513,19.022499 c 0,0 5.88265,14.095423 -41.61347,22.608238 C 90.909462,87.139971 70.158188,76.310722 67.544184,75.852613 51.476082,65.873606 53.410686,64.813112 53.410686,64.813112 Z"
       id="path18"
       sodipodi:nodetypes="ccsccscc" /><path
       style="fill:#ff53ff;fill-opacity:0.311085;stroke:#000000;stroke-width:0.645121;stroke-linejoin:round;stroke-dasharray:none;stroke-opacity:0"
       d="M 48.137323,109.82904 C 109.73554,74.406629 167.05715,108.36675 167.05715,108.36675 l 2.16963,155.85604 c 0,0 -22.95003,26.01583 -61.88469,25.99781 -37.590653,-0.0172 -56.292015,-26.21163 -56.292015,-26.21163 z"
       id="path19"
       sodipodi:nodetypes="cccscc" /><path
       style="fill:#ff51ff;fill-opacity:0;stroke:#000000;stroke-width:0.635575;stroke-linejoin:round;stroke-opacity:1"
       d="M 47.319865,110.06264 C 67.775351,98.747126 89.489202,93.6628 107.8687,93.722423 c 33.92843,0.109936 58.95537,14.470917 58.95537,14.470917 0,0 -16.84561,7.424 -59.65309,6.35584 -42.807469,-1.06816 -59.851115,-4.48654 -59.851115,-4.48654 z"
       id="path2"
       sodipodi:nodetypes="cscsc" /></g></svg>
