<?xml version="1.0" encoding="UTF-8" standalone="no"?>
<!-- Created with Inkscape (http://www.inkscape.org/) -->

<svg
   width="160mm"
   height="160mm"
   viewBox="0 0 160 160"
   version="1.1"
   id="svg1"
   xml:space="preserve"
   inkscape:version="1.4.2 (ebf0e940d0, 2025-05-08)"
   sodipodi:docname="empty_tablet.svg"
   xmlns:inkscape="http://www.inkscape.org/namespaces/inkscape"
   xmlns:sodipodi="http://sodipodi.sourceforge.net/DTD/sodipodi-0.dtd"
   xmlns="http://www.w3.org/2000/svg"
   xmlns:svg="http://www.w3.org/2000/svg"><g
     inkscape:label="Layer 1"
     inkscape:groupmode="layer"
     id="layer1"><path
       style="fill:#000000;fill-opacity:0.214143;stroke:#000000;stroke-width:0.362766;stroke-linejoin:round"
       d="M 13.851875,104.99861 C 100.28977,14.082578 101.02438,13.844575 101.02438,13.844575 c 0,0 7.10113,-6.1880028 10.77413,-6.4260015 3.67299,-0.2379987 9.79466,2.8560015 9.79466,2.8560015 l 27.91479,25.704008 c 0,0 3.91787,4.046002 3.91787,8.568007 0,4.522 -5.1422,10.234003 -5.1422,10.234003 L 58.662467,148.55262 c 0,0 -3.428138,3.33201 -6.611404,3.57002 -3.183264,0.23799 -8.570333,-2.14201 -8.570333,-2.14201 L 12.627543,122.84861 c 0,0 -2.9383992,-4.76 -3.1832657,-8.56799 -0.2448693,-3.808 4.4075977,-9.28201 4.4075977,-9.28201 z"
       id="path1" /><path
       style="fill:#000000;fill-opacity:0.214143;stroke:#000000;stroke-width:0.362766;stroke-linejoin:round"
       d="m 23.782575,105.15729 c 0,0 6.856263,-7.510229 15.889119,-0.63468 9.032857,6.87556 -0.544144,15.23201 -0.544144,15.23201 0,0 -8.815199,4.65422 -14.583168,-1.79823 -5.767969,-6.45244 -0.761807,-12.7991 -0.761807,-12.7991 z"
       id="path2" /><path
       style="fill:#000000;fill-opacity:0.214143;stroke:#000000;stroke-width:0.362766;stroke-linejoin:round"
       d="m 43.523536,123.2741 c 0,0 6.856262,-7.51022 15.889119,-0.63467 9.032851,6.87555 -0.544142,15.23201 -0.544142,15.23201 0,0 -8.815201,4.65422 -14.58317,-1.79823 -5.76797,-6.45244 -0.761807,-12.79911 -0.761807,-12.79911 z"
       id="path2-2" /><path
       style="fill:#000000;fill-opacity:0.214143;stroke:#000000;stroke-width:0.362766;stroke-linejoin:round"
       d="m 42.428182,85.133355 c 0,0 6.856262,-7.510225 15.889122,-0.634679 9.032851,6.875559 -0.544142,15.232012 -0.544142,15.232012 0,0 -8.815204,4.654222 -14.583173,-1.798226 C 37.42202,91.480017 42.428182,85.133355 42.428182,85.133355 Z"
       id="path2-2-0" /><path
       style="fill:#000000;fill-opacity:0.214143;stroke:#000000;stroke-width:0.362766;stroke-linejoin:round"
       d="m 62.452825,103.0807 c 0,0 6.85627,-7.510221 15.889135,-0.63468 9.032851,6.87556 -0.544142,15.23202 -0.544142,15.23202 0,0 -8.815211,4.65422 -14.583184,-1.79823 -5.767974,-6.45244 -0.761809,-12.79911 -0.761809,-12.79911 z"
       id="path2-2-0-6" /><path
       style="fill:#000000;fill-opacity:0.214143;stroke:#000000;stroke-width:0.344558;stroke-linejoin:round"
       d="m 61.773356,64.44378 c 0,0 6.179731,-7.516991 14.321277,-0.635249 8.141533,6.881754 -0.49046,15.245736 -0.49046,15.245736 0,0 -7.945359,4.658413 -13.144184,-1.799847 -5.19881,-6.458259 -0.686633,-12.81064 -0.686633,-12.81064 z"
       id="path2-2-0-6-7" /><path
       style="fill:#000000;fill-opacity:0.214143;stroke:#000000;stroke-width:0.335425;stroke-linejoin:round"
       d="m 82.368147,83.425052 c 0,0 6.097336,-7.220006 14.130312,-0.610156 8.032971,6.609863 -0.483907,14.643382 -0.483907,14.643382 0,0 -7.839427,4.474372 -12.968922,-1.728735 -5.129494,-6.203091 -0.677483,-12.304491 -0.677483,-12.304491 z"
       id="path2-2-0-6-3" /><path
       style="fill:#000000;fill-opacity:0.214143;stroke:#000000;stroke-width:0.336574;stroke-linejoin:round"
       d="m 81.10152,45.409378 c 0,0 6.139616,-7.219546 14.228314,-0.610114 8.088686,6.609449 -0.487267,14.642472 -0.487267,14.642472 0,0 -7.893788,4.47408 -13.058857,-1.728627 -5.165069,-6.202708 -0.68219,-12.303731 -0.68219,-12.303731 z"
       id="path2-2-0-6-2" /><path
       style="fill:#000000;fill-opacity:0.214143;stroke:#000000;stroke-width:0.341034;stroke-linejoin:round"
       d="m 101.31875,63.052159 c 0,0 6.0529,-7.518302 14.02738,-0.635362 7.97446,6.882953 -0.48038,15.248393 -0.48038,15.248393 0,0 -7.78233,4.65922 -12.87446,-1.800161 -5.092126,-6.459383 -0.67254,-12.81287 -0.67254,-12.81287 z"
       id="path2-2-0-6-6" /><path
       style="fill:#000000;fill-opacity:0.214143;stroke:#000000;stroke-width:0.335423;stroke-linejoin:round"
       d="m 100.45827,25.46552 c 0,0 6.09731,-7.219999 14.13027,-0.610153 8.03297,6.609859 -0.48389,14.643385 -0.48389,14.643385 0,0 -7.83941,4.47436 -12.96889,-1.728736 -5.129484,-6.203095 -0.67749,-12.304496 -0.67749,-12.304496 z"
       id="path2-2-0-6-1" /><path
       style="fill:#000000;fill-opacity:0.214143;stroke:#000000;stroke-width:0.345726;stroke-linejoin:round"
       d="m 120.26882,43.320377 c 0,0 6.222,-7.516558 14.41924,-0.635214 8.19723,6.881357 -0.4938,15.244857 -0.4938,15.244857 0,0 -7.99973,4.658143 -13.23412,-1.799743 -5.23437,-6.457886 -0.69132,-12.8099 -0.69132,-12.8099 z"
       id="path2-2-0-6-4" /></g></svg>
