<?xml version="1.0" encoding="UTF-8" standalone="no"?>
<!-- Created with Inkscape (http://www.inkscape.org/) -->

<svg
   width="160mm"
   height="160mm"
   viewBox="0 0 160 160"
   version="1.1"
   id="svg1"
   xml:space="preserve"
   sodipodi:docname="full_tablet.svg"
   inkscape:version="1.4.2 (ebf0e940d0, 2025-05-08)"
   xmlns:inkscape="http://www.inkscape.org/namespaces/inkscape"
   xmlns:sodipodi="http://sodipodi.sourceforge.net/DTD/sodipodi-0.dtd"
   xmlns="http://www.w3.org/2000/svg"
   xmlns:svg="http://www.w3.org/2000/svg"><sodipodi:namedview
     id="namedview1"
     pagecolor="#505050"
     bordercolor="#eeeeee"
     borderopacity="1"
     inkscape:showpageshadow="0"
     inkscape:pageopacity="0"
     inkscape:pagecheckerboard="0"
     inkscape:deskcolor="#505050"
     inkscape:document-units="mm"
     inkscape:zoom="0.65850581"
     inkscape:cx="263.47528"
     inkscape:cy="520.1169"
     inkscape:window-width="1886"
     inkscape:window-height="1004"
     inkscape:window-x="0"
     inkscape:window-y="0"
     inkscape:window-maximized="1"
     inkscape:current-layer="layer1" /><defs
     id="defs1" /><g
     inkscape:label="Layer 1"
     inkscape:groupmode="layer"
     id="layer1"><path
       style="fill:#000000;fill-opacity:0.214143;stroke:#000000;stroke-width:0.34912;stroke-linejoin:round"
       d="M 16.600709,104.49669 C 99.302798,16.488613 100.00566,16.258223 100.00566,16.258223 c 0,0 6.79422,-5.99008 10.30847,-6.220466 3.51426,-0.2303862 9.37134,2.764653 9.37134,2.764653 l 26.70833,24.881863 c 0,0 3.74854,3.916589 3.74854,8.293956 0,4.377365 -4.91996,9.906669 -4.91996,9.906669 L 59.474607,146.65762 c 0,0 -3.279976,3.22544 -6.325662,3.45582 -3.045685,0.23038 -8.199928,-2.07349 -8.199928,-2.07349 L 15.429291,121.77576 c 0,0 -2.811403,-4.60775 -3.045687,-8.29395 -0.234286,-3.6862 4.217105,-8.98512 4.217105,-8.98512 z"
       id="path1" /><path
       style="fill:#000000;fill-opacity:0.214143;stroke:#000000;stroke-width:0.34912;stroke-linejoin:round"
       d="m 26.102208,104.65028 c 0,0 6.559938,-7.270011 15.202399,-0.61437 8.642459,6.65564 -0.520628,14.74481 -0.520628,14.74481 0,0 -8.434209,4.50536 -13.952889,-1.7407 -5.51868,-6.24607 -0.728882,-12.38974 -0.728882,-12.38974 z"
       id="path2" /><path
       style="fill:#000000;fill-opacity:0.214143;stroke:#000000;stroke-width:0.34912;stroke-linejoin:round"
       d="m 44.989973,122.18764 c 0,0 6.559937,-7.27001 15.202398,-0.61438 8.642455,6.65565 -0.520624,14.74481 -0.520624,14.74481 0,0 -8.434212,4.50535 -13.952892,-1.74071 -5.518681,-6.24606 -0.728882,-12.38972 -0.728882,-12.38972 z"
       id="path2-2" /><path
       style="fill:#000000;fill-opacity:0.214143;stroke:#000000;stroke-width:0.34912;stroke-linejoin:round"
       d="m 41.689666,87.614215 c 0,0 6.559937,-7.270009 15.202398,-0.614378 8.642456,6.655643 -0.520624,14.744813 -0.520624,14.744813 0,0 -8.434212,4.50535 -13.952893,-1.74071 -5.51868,-6.246061 -0.728881,-12.389725 -0.728881,-12.389725 z"
       id="path2-2-1" /><path
       style="fill:#e6e6e6;fill-opacity:0.449225;stroke:#000000;stroke-width:0.303887;stroke-linejoin:round"
       d="m 27.100232,105.27952 c 0,0 5.591189,-6.462661 12.957362,-0.54615 7.366168,5.91654 -0.44374,13.1074 -0.44374,13.1074 0,0 -7.188678,4.00505 -11.892378,-1.5474 -4.703701,-5.55243 -0.621244,-11.01385 -0.621244,-11.01385 z"
       id="path2-2-0" /><path
       style="fill:#e6e6e6;fill-opacity:0.449225;stroke:#000000;stroke-width:0.303887;stroke-linejoin:round"
       d="m 46.156767,122.71512 c 0,0 5.591189,-6.46265 12.957357,-0.54614 7.366176,5.91654 -0.443729,13.10739 -0.443729,13.10739 0,0 -7.188684,4.00505 -11.892385,-1.5474 -4.7037,-5.55243 -0.621243,-11.01385 -0.621243,-11.01385 z"
       id="path2-2-0-68" /><path
       style="fill:#e6e6e6;fill-opacity:0.449225;stroke:#000000;stroke-width:0.303887;stroke-linejoin:round"
       d="m 42.84117,88.057163 c 0,0 5.591189,-6.462657 12.957358,-0.546143 7.366175,5.916539 -0.443729,13.10739 -0.443729,13.10739 0,0 -7.188686,4.00505 -11.892386,-1.547401 C 38.758712,93.518579 42.84117,88.057163 42.84117,88.057163 Z"
       id="path2-2-0-4" /><path
       style="fill:#000000;fill-opacity:0.214143;stroke:#000000;stroke-width:0.34912;stroke-linejoin:round"
       d="m 64.842888,103.57437 c 0,0 6.559945,-7.270012 15.202414,-0.61438 8.642456,6.65565 -0.520624,14.74481 -0.520624,14.74481 0,0 -8.434221,4.50536 -13.952905,-1.74071 -5.518684,-6.24606 -0.728885,-12.38972 -0.728885,-12.38972 z"
       id="path2-2-0-6" /><path
       style="fill:#000000;fill-opacity:0.214143;stroke:#000000;stroke-width:0.331596;stroke-linejoin:round"
       d="m 62.451044,65.239007 c 0,0 5.912647,-7.27656 13.702318,-0.614931 7.789661,6.661639 -0.469263,14.758099 -0.469263,14.758099 0,0 -7.601965,4.509413 -12.576098,-1.742279 -4.97412,-6.25169 -0.656957,-12.400889 -0.656957,-12.400889 z"
       id="path2-2-0-6-7" /><path
       style="fill:#000000;fill-opacity:0.214143;stroke:#000000;stroke-width:0.322807;stroke-linejoin:round"
       d="m 82.155738,83.61316 c 0,0 5.83381,-6.989073 13.51961,-0.59064 7.685792,6.398445 -0.463,14.175009 -0.463,14.175009 0,0 -7.5006,4.331261 -12.408408,-1.673436 C 77.896141,89.519405 82.155738,83.61316 82.155738,83.61316 Z"
       id="path2-2-0-6-3" /><path
       style="fill:#000000;fill-opacity:0.214143;stroke:#000000;stroke-width:0.323913;stroke-linejoin:round"
       d="m 80.943853,46.813422 c 0,0 5.874265,-6.988628 13.613375,-0.5906 7.739102,6.398046 -0.46621,14.174132 -0.46621,14.174132 0,0 -7.55262,4.330976 -12.494458,-1.673338 -4.941837,-6.004314 -0.652707,-11.910194 -0.652707,-11.910194 z"
       id="path2-2-0-6-2" /><path
       style="fill:#000000;fill-opacity:0.214143;stroke:#000000;stroke-width:0.328205;stroke-linejoin:round"
       d="m 100.28731,63.891896 c 0,0 5.79129,-7.277828 13.42112,-0.615039 7.62981,6.6628 -0.45962,14.760671 -0.45962,14.760671 0,0 -7.44598,4.510194 -12.31803,-1.742582 -4.872052,-6.25278 -0.64347,-12.40305 -0.64347,-12.40305 z"
       id="path2-2-0-6-6" /><path
       style="fill:#000000;fill-opacity:0.214143;stroke:#000000;stroke-width:0.322805;stroke-linejoin:round"
       d="m 99.464018,27.50747 c 0,0 5.833782,-6.989065 13.519562,-0.590636 7.68578,6.398441 -0.46297,14.175014 -0.46297,14.175014 0,0 -7.5006,4.331246 -12.40838,-1.673443 C 95.204428,33.413718 99.464018,27.50747 99.464018,27.50747 Z"
       id="path2-2-0-6-1" /><path
       style="fill:#000000;fill-opacity:0.214143;stroke:#000000;stroke-width:0.33272;stroke-linejoin:round"
       d="m 118.41836,44.791238 c 0,0 5.95309,-7.27614 13.79604,-0.614898 7.84296,6.661257 -0.47245,14.75725 -0.47245,14.75725 0,0 -7.65399,4.509152 -12.66214,-1.742178 -5.00815,-6.25133 -0.66145,-12.400174 -0.66145,-12.400174 z"
       id="path2-2-0-6-4" /><path
       style="fill:#e6e6e6;fill-opacity:0.449225;stroke:#000000;stroke-width:0.287746;stroke-linejoin:round"
       d="m 63.426556,66.143407 c 0,0 5.260551,-6.158548 12.191157,-0.520443 6.930578,5.63813 -0.417504,12.490607 -0.417504,12.490607 0,0 -6.763582,3.816597 -11.189153,-1.474581 -4.425557,-5.291159 -0.5845,-10.495583 -0.5845,-10.495583 z"
       id="path2-2-0-7" /><path
       style="fill:#e6e6e6;fill-opacity:0.449225;stroke:#000000;stroke-width:0.287746;stroke-linejoin:round"
       d="m 83.186601,84.283375 c 0,0 5.260547,-6.158551 12.191147,-0.520445 6.930592,5.638138 -0.4175,12.490607 -0.4175,12.490607 0,0 -6.76358,3.816603 -11.189157,-1.474577 -4.425552,-5.291157 -0.58449,-10.495585 -0.58449,-10.495585 z"
       id="path2-2-0-7-9" /><path
       style="fill:#e6e6e6;fill-opacity:0.449225;stroke:#000000;stroke-width:0.287746;stroke-linejoin:round"
       d="m 66.570228,104.31005 c 0,0 5.260552,-6.158561 12.191156,-0.52045 6.930584,5.63814 -0.417503,12.49061 -0.417503,12.49061 0,0 -6.763582,3.81661 -11.189153,-1.47457 -4.425557,-5.29116 -0.5845,-10.49559 -0.5845,-10.49559 z"
       id="path2-2-0-7-9-3" /><path
       style="fill:#e6e6e6;fill-opacity:0.449225;stroke:#000000;stroke-width:0.287746;stroke-linejoin:round"
       d="m 81.791003,47.470348 c 0,0 5.260545,-6.158548 12.191155,-0.520445 6.930582,5.638138 -0.41751,12.490609 -0.41751,12.490609 0,0 -6.76357,3.816599 -11.189145,-1.474576 -4.425558,-5.291161 -0.5845,-10.495588 -0.5845,-10.495588 z"
       id="path2-2-0-7-1" /><path
       style="fill:#e6e6e6;fill-opacity:0.449225;stroke:#000000;stroke-width:0.287746;stroke-linejoin:round"
       d="m 101.01707,64.677483 c 0,0 5.26055,-6.158549 12.19116,-0.520443 6.93058,5.63813 -0.41751,12.490606 -0.41751,12.490606 0,0 -6.76358,3.816596 -11.18915,-1.474579 -4.425552,-5.29116 -0.5845,-10.495584 -0.5845,-10.495584 z"
       id="path2-2-0-7-5" /><path
       style="fill:#e6e6e6;fill-opacity:0.449225;stroke:#000000;stroke-width:0.287746;stroke-linejoin:round"
       d="m 119.42631,45.799076 c 0,0 5.26054,-6.158549 12.19115,-0.520443 6.93058,5.63813 -0.41751,12.490606 -0.41751,12.490606 0,0 -6.76358,3.816604 -11.18914,-1.474581 -4.42556,-5.291158 -0.5845,-10.495582 -0.5845,-10.495582 z"
       id="path2-2-0-7-7" /><path
       style="fill:#e6e6e6;fill-opacity:0.449225;stroke:#000000;stroke-width:0.287746;stroke-linejoin:round"
       d="m 100.22832,27.984607 c 0,0 5.26055,-6.158548 12.19116,-0.520443 6.93058,5.638131 -0.41751,12.490607 -0.41751,12.490607 0,0 -6.76357,3.816597 -11.18915,-1.474581 -4.425552,-5.291158 -0.5845,-10.495583 -0.5845,-10.495583 z"
       id="path2-2-0-7-3" /></g></svg>
